<?xml version="1.0" encoding="UTF-8" standalone="no"?>
<svg
   xmlns:dc="http://purl.org/dc/elements/1.1/"
   xmlns:cc="http://creativecommons.org/ns#"
   xmlns:rdf="http://www.w3.org/1999/02/22-rdf-syntax-ns#"
   xmlns:svg="http://www.w3.org/2000/svg"
   xmlns="http://www.w3.org/2000/svg"
   xmlns:sodipodi="http://sodipodi.sourceforge.net/DTD/sodipodi-0.dtd"
   xmlns:inkscape="http://www.inkscape.org/namespaces/inkscape"
   width="768.381"
   height="384.939"
   viewBox="0 0 768.381 384.939"
   version="1.1"
   id="svg175"
   sodipodi:docname="illustration.svg"
   inkscape:version="0.92.5 (2060ec1f9f, 2020-04-08)">
  <metadata
     id="metadata181">
    <rdf:RDF>
      <cc:Work
         rdf:about="">
        <dc:format>image/svg+xml</dc:format>
        <dc:type
           rdf:resource="http://purl.org/dc/dcmitype/StillImage" />
      </cc:Work>
    </rdf:RDF>
  </metadata>
  <defs
     id="defs179" />
  <sodipodi:namedview
     pagecolor="#ffffff"
     bordercolor="#666666"
     borderopacity="1"
     objecttolerance="10"
     gridtolerance="10"
     guidetolerance="10"
     inkscape:pageopacity="0"
     inkscape:pageshadow="2"
     inkscape:window-width="1600"
     inkscape:window-height="766"
     id="namedview177"
     showgrid="false"
     inkscape:zoom="0.57393404"
     inkscape:cx="384.19049"
     inkscape:cy="192.4695"
     inkscape:window-x="0"
     inkscape:window-y="27"
     inkscape:window-maximized="1"
     inkscape:current-layer="Group_1424" />
  <g
     id="Group_1642"
     data-name="Group 1642"
     transform="translate(-1052.636 2529)">
    <path
       id="Path_29344"
       data-name="Path 29344"
       d="M1498.078,1349.832c-1.355-18.8-10.466-35.159-24.828-45.185a56.763,56.763,0,0,0-8.874-5.047,62.3,62.3,0,0,1,10.128,30.011c.1,1.49.169,2.981.169,4.471a60.047,60.047,0,0,1-86.272,54.127,60.149,60.149,0,0,0,109.813-33.94C1498.247,1352.813,1498.179,1351.323,1498.078,1349.832Z"
       transform="translate(165.87 -3558.856)"
       fill="#70c8d6" />
    <circle
       id="Ellipse_438"
       data-name="Ellipse 438"
       cx="4.302"
       cy="4.302"
       r="4.302"
       transform="translate(1584.857 -2233.073)"
       fill="#70c8d6" />
    <circle
       id="Ellipse_439"
       data-name="Ellipse 439"
       cx="7.689"
       cy="7.689"
       r="7.689"
       transform="translate(1593.833 -2220.947)"
       fill="#70c8d6" />
    <path
       id="Path_29347"
       data-name="Path 29347"
       d="M1486.148,1460.124v.237a52.024,52.024,0,0,1-88.914,36.209,51.182,51.182,0,0,1-14.734-30.925v-.034a51.188,51.188,0,0,1,26.488-7.418c15.818.17,30.417,12.871,53.755,9.721A73.616,73.616,0,0,0,1486.148,1460.124Z"
       transform="translate(169.772 -3663.728)"
       fill="#b58fef" />
    <path
       id="Path_29348"
       data-name="Path 29348"
       d="M1517.691,1463.9v.237a51.753,51.753,0,0,1-51.96,51.553c-14.5,0-26.115-4.471-35.532-13.955,12.092,2.066,48.369.474,64.831-30.18C1501.975,1470.641,1508.919,1468.371,1517.691,1463.9Z"
       transform="translate(138.229 -3667.505)"
       fill="#8c6acc" />
    <circle
       id="Ellipse_440"
       data-name="Ellipse 440"
       cx="7.757"
       cy="7.757"
       r="7.757"
       transform="matrix(0.8, -0.6, 0.6, 0.8, 1609.72, -2186.046)"
       fill="#8c6acc" />
    <circle
       id="Ellipse_441"
       data-name="Ellipse 441"
       cx="4.302"
       cy="4.302"
       r="4.302"
       transform="translate(1564.127 -2197.339)"
       fill="#8c6acc" />
    <g
       id="Group_1376"
       data-name="Group 1376"
       transform="translate(1052.636 -2145.235)">
      <path
         id="Path_29012"
         data-name="Path 29012"
         d="M1367.281,344.509c0-.206-171.95-.309-384.191-.309s-384.191.1-384.191.309,171.951.309,384.191.309S1367.281,344.715,1367.281,344.509Z"
         transform="translate(-598.9 -344.2)"
         fill="#263238" />
    </g>
    <g
       id="Group_1491"
       data-name="Group 1491"
       transform="translate(1092.945 -2387.699)">
      <path
         id="Path_29319"
         data-name="Path 29319"
         d="M298.064,857.727H427.082a1.763,1.763,0,0,0,1.764-1.764,1.783,1.783,0,0,0-1.764-1.763H298.064a1.763,1.763,0,0,0-1.764,1.763A1.783,1.783,0,0,0,298.064,857.727Z"
         transform="translate(-296.3 -854.2)"
         fill="#b6c2cc" />
    </g>
    <path
       id="Path_29320"
       data-name="Path 29320"
       d="M214.5,1572.985H315.58a29.525,29.525,0,0,0-29.516-29.485H244.016A29.485,29.485,0,0,0,214.5,1572.985Z"
       transform="translate(853.136 -3717.933)"
       fill="#c7d3de" />
    <g
       id="Group_1492"
       data-name="Group 1492"
       transform="translate(1114.633 -2460.407)">
      <path
         id="Path_29321"
         data-name="Path 29321"
         d="M366.4,622.6V919.933a3.528,3.528,0,0,0,7.054,0V622.6a3.481,3.481,0,0,0-3.527-3.4,3.726,3.726,0,0,0-2.506.99.03.03,0,0,0-.031.031A3.344,3.344,0,0,0,366.4,622.6Z"
         transform="translate(-366.4 -619.2)"
         fill="#c7d3de" />
    </g>
    <rect
       id="Rectangle_337"
       data-name="Rectangle 337"
       width="20.049"
       height="8.539"
       transform="translate(1108.136 -2462.14)"
       fill="#c7d3de" />
    <path
       id="Path_29322"
       data-name="Path 29322"
       d="M261.5,902.08c2.166-.526,3.527-.773,3.527-.773V622.139c-2.135-2.1-2.723-4.053-2.537-5.786a.03.03,0,0,1,.031-.031,5.693,5.693,0,0,1,.99-2.723H255v8.539h6.5V901.276h-17.45A29.538,29.538,0,0,0,214.5,930.792h29.64C222.08,913.683,250.978,904.648,261.5,902.08Z"
       transform="translate(853.136 -3075.74)"
       fill="#b6c2cc" />
    <path
       id="Path_29324"
       data-name="Path 29324"
       d="M345.4,830.853V840.2a5.361,5.361,0,0,0,5.353,5.383H360.1a5.361,5.361,0,0,0,5.352-5.383v-9.344A5.354,5.354,0,0,0,360.1,825.5h-9.344A5.354,5.354,0,0,0,345.4,830.853Z"
       transform="translate(762.736 -3222.079)"
       fill="#c7d3de" />
    <path
       id="Path_29325"
       data-name="Path 29325"
       d="M274.4,829.808v11.541a4.279,4.279,0,0,0,4.239,4.3,4.181,4.181,0,0,0,1.64-.309s0,.031.031,0a4.344,4.344,0,0,0,2.63-3.96v-11.54a4.259,4.259,0,0,0-4.3-4.239,4.353,4.353,0,0,0-1.794.4C274.8,827.8,274.4,828.756,274.4,829.808Z"
       transform="translate(811.769 -3222.148)"
       fill="#c7d3de" />
    <path
       id="Path_29326"
       data-name="Path 29326"
       d="M345.4,830.853V840.2a5.361,5.361,0,0,0,5.353,5.383h4.672c-6.807-11.7,0-20.08,0-20.08h-4.672A5.354,5.354,0,0,0,345.4,830.853Z"
       transform="translate(762.736 -3222.079)"
       fill="#b6c2cc" />
    <path
       id="Path_29327"
       data-name="Path 29327"
       d="M274.4,830.637v11.54a4.279,4.279,0,0,0,4.239,4.3,4.181,4.181,0,0,0,1.64-.309c-3.837-3.125-3.806-13.552-3.434-19.368C274.8,828.625,274.4,829.585,274.4,830.637Z"
       transform="translate(811.769 -3222.977)"
       fill="#b6c2cc" />
    <g
       id="Group_1494"
       data-name="Group 1494"
       transform="translate(1252.253 -2201.907)">
      <path
         id="Path_29329"
         data-name="Path 29329"
         d="M811.293,1475.337a.1.1,0,0,1-.093-.093v-20.451a.1.1,0,0,1,.093-.093.082.082,0,0,1,.093.093v20.451C811.355,1475.306,811.324,1475.337,811.293,1475.337Z"
         transform="translate(-811.2 -1454.7)"
         fill="#dd3b2f" />
    </g>
    <path
       id="Path_29330"
       data-name="Path 29330"
       d="M763.665,1510.968v10.365H686.1v-10.365a5.585,5.585,0,0,1,5.569-5.569h66.489A5.494,5.494,0,0,1,763.665,1510.968Z"
       transform="translate(527.447 -3691.62)"
       fill="#9ac4f8" />
    <path
       id="Path_29331"
       data-name="Path 29331"
       d="M763.665,1510.968v10.365H686.1v-3.156c17.574,1.423,55.351,2.413,70.449-12.778h1.609A5.494,5.494,0,0,1,763.665,1510.968Z"
       transform="translate(527.447 -3691.62)"
       fill="#82baff" />
    <path
       id="Path_29332"
       data-name="Path 29332"
       d="M750.285,1560.388v19.987H651v-19.987a6.206,6.206,0,0,1,6.188-6.188H744.1A6.206,6.206,0,0,1,750.285,1560.388Z"
       transform="translate(551.687 -3725.322)"
       fill="#9ac4f8" />
    <path
       id="Path_29333"
       data-name="Path 29333"
       d="M773.973,1560.374v19.987H752.841c3.96-4.177,5.971-8.354,4.053-12.159-7.456-14.758-71.594-14.016-71.594-14.016h82.485A6.206,6.206,0,0,1,773.973,1560.374Z"
       transform="translate(528 -3725.308)"
       fill="#82baff" />
    <path
       id="Path_29336"
       data-name="Path 29336"
       d="M756.263,1579.317v10.705H666.6v-10.705a4.47,4.47,0,0,1,4.455-4.517h80.752A4.51,4.51,0,0,1,756.263,1579.317Z"
       transform="translate(540.914 -3739.548)"
       fill="#263238" />
    <path
       id="Path_29337"
       data-name="Path 29337"
       d="M902.533,1579.386v10.705H889.662c1.423-2.63,1.795-5.167.588-7.58-1.64-3.249-6.033-5.724-11.85-7.611h19.678A4.463,4.463,0,0,1,902.533,1579.386Z"
       transform="translate(394.644 -3739.618)"
       fill="#414d53" />
    <g
       id="Group_1395"
       data-name="Group 1395"
       transform="matrix(1.2477155,0,0,1.1477308,1226.8975,-2362.5156)">
      <path
         id="Path_29013"
         data-name="Path 29013"
         d="m 716.163,310.42 -41.763,-41.9 21.02,-38.582 c 21.02,-26.828 65.41,-25.168 65.41,-25.168 a 253.906,253.906 0 0 1 65.549,4.01 c 35.264,6.914 32.5,30.285 32.5,30.285 l 4.7,86.568 5.117,70.389 -130.129,2.627 -22.4,-88.228"
         transform="translate(-631.411,-204.162)"
         inkscape:connector-curvature="0"
         style="fill:#e8505b" />
      <path
         id="Path_29014"
         data-name="Path 29014"
         d="m 798.316,382 -116.577,1.383 c -28.073,0.277 -46.741,-28.764 -34.71,-54.071 l 49.922,-92.512 45.359,30.7 -30.977,64.3 94.451,1.66 z"
         transform="translate(-643.313,-191.666)"
         inkscape:connector-curvature="0"
         style="fill:#e8505b" />
      <path
         id="Path_29015"
         data-name="Path 29015"
         d="m 804.8,219.1 93.621,144.511 -54.624,3.6 c 0,0 -32.636,-51.443 -31.806,-50.337 1.245,1.932 -7.191,-97.774 -7.191,-97.774 z"
         transform="translate(-581.483,-198.443)"
         inkscape:connector-curvature="0"
         style="fill:#e8505b" />
      <path
         id="Path_29016"
         data-name="Path 29016"
         d="M 702,285.5"
         transform="translate(-620.843,-173.02)"
         inkscape:connector-curvature="0"
         style="fill:#e8505b" />
      <g
         id="Group_1378"
         data-name="Group 1378"
         transform="translate(81.018,17.615)">
        <path
           id="Path_29017"
           data-name="Path 29017"
           d="m 717.388,283.417 a 2.422,2.422 0 0 1 0.138,-0.691 c 0.138,-0.553 0.277,-1.245 0.553,-2.074 0.415,-1.8 1.106,-4.425 1.659,-7.744 a 103.681,103.681 0 0 0 1.8,-11.616 61.287,61.287 0 0 0 0,-14.244 36.179,36.179 0 0 0 -4.84,-13.276 61.492,61.492 0 0 0 -6.914,-9.4 65.928,65.928 0 0 0 -5.67,-5.532 c -1.383,-1.245 -2.213,-1.8 -2.213,-1.936 a 7.177,7.177 0 0 1 0.691,0.415 q 0.622,0.415 1.659,1.245 a 37.959,37.959 0 0 1 5.808,5.393 50.428,50.428 0 0 1 7.191,9.4 40.5,40.5 0 0 1 4.978,13.552 55.28,55.28 0 0 1 -0.138,14.382 c -0.553,4.425 -1.245,8.3 -1.936,11.616 -0.691,3.316 -1.383,5.946 -1.936,7.744 a 8.845,8.845 0 0 1 -0.691,2.074 1.678,1.678 0 0 1 -0.139,0.692 z"
           transform="translate(-701.9,-216.9)"
           inkscape:connector-curvature="0"
           style="fill:#263238" />
      </g>
      <g
         id="Group_1379"
         data-name="Group 1379"
         transform="translate(67.743,89.11)">
        <path
           id="Path_29018"
           data-name="Path 29018"
           d="m 717.33,268.6 c 0,0 -0.277,0.83 -0.83,2.074 -0.553,1.383 -1.383,3.181 -2.489,5.532 -2.074,4.7 -5.117,11.2 -8.574,18.254 -3.457,7.054 -6.776,13.414 -9.127,17.977 -1.245,2.213 -2.213,4.149 -2.9,5.393 -0.687,1.244 -1.106,1.936 -1.106,1.936 0,0 0.277,-0.691 0.968,-2.074 0.691,-1.383 1.659,-3.181 2.766,-5.393 l 8.989,-17.978 c 3.457,-7.053 6.5,-13.414 8.712,-18.116 1.106,-2.213 1.936,-4.01 2.628,-5.532 a 15.949,15.949 0 0 1 0.963,-2.073 z"
           transform="translate(-692.3,-268.6)"
           inkscape:connector-curvature="0"
           style="fill:#263238" />
      </g>
      <g
         id="Group_1380"
         data-name="Group 1380"
         transform="translate(41.191,139.723)">
        <path
           id="Path_29019"
           data-name="Path 29019"
           d="m 786.911,355.813 v -0.968 c 0,-0.691 0.138,-1.521 0.277,-2.766 0.276,-2.489 0.691,-5.946 1.106,-10.372 0.968,-8.989 2.489,-21.573 4.149,-36.37 l 0.277,0.415 h -34.434 c -23.509,0 -44.805,-0.138 -60.294,-0.138 -7.606,0 -13.967,-0.138 -18.254,-0.138 v 0 c 4.425,0 10.648,0 18.254,-0.138 15.488,0 36.785,0 60.294,-0.138 h 34.849 v 0.415 c -1.8,14.8 -3.319,27.381 -4.425,36.37 -0.553,4.425 -0.968,7.882 -1.383,10.372 -0.138,1.106 -0.277,2.074 -0.415,2.766 a 5.994,5.994 0 0 1 -0.138,0.691 c 0.137,-0.139 0.137,-0.001 0.137,-0.001 z"
           transform="translate(-673.1,-305.2)"
           inkscape:connector-curvature="0"
           style="fill:#263238" />
      </g>
      <g
         id="Group_1381"
         data-name="Group 1381"
         transform="translate(49.489,124.901)">
        <path
           id="Path_29020"
           data-name="Path 29020"
           d="m 698.322,310.687 c -0.138,0 -0.83,-1.106 -2.351,-2.9 a 43.719,43.719 0 0 0 -6.223,-6.361 51.676,51.676 0 0 0 -7.329,-5.117 c -1.936,-1.106 -3.319,-1.659 -3.319,-1.8 0,-0.141 1.383,0.277 3.457,1.383 a 35.1,35.1 0 0 1 7.606,4.978 37.787,37.787 0 0 1 6.223,6.638 c 1.383,1.934 2.074,3.179 1.936,3.179 z"
           transform="translate(-679.1,-294.481)"
           inkscape:connector-curvature="0"
           style="fill:#263238" />
      </g>
      <g
         id="Group_1382"
         data-name="Group 1382"
         transform="translate(226.774,31.444)">
        <path
           id="Path_29021"
           data-name="Path 29021"
           d="m 814.629,345.69 a 4.341,4.341 0 0 1 -0.138,-1.245 c -0.138,-0.83 -0.276,-1.936 -0.415,-3.457 -0.277,-3.042 -0.691,-7.329 -1.245,-12.723 -0.968,-10.648 -2.074,-25.583 -3.042,-41.9 -0.968,-16.317 -1.66,-31.253 -2.075,-42.04 -0.138,-5.393 -0.276,-9.68 -0.415,-12.723 v -4.7 a 8.535,8.535 0 0 0 0.138,1.245 c 0,0.83 0.138,2.074 0.138,3.457 0.138,3.042 0.415,7.468 0.553,12.723 0.553,10.787 1.245,25.583 2.213,41.9 0.968,16.317 1.936,31.253 2.766,41.9 0.415,5.255 0.692,9.68 0.968,12.723 0.138,1.383 0.138,2.628 0.276,3.457 a 5.855,5.855 0 0 1 0.278,1.383 z"
           transform="translate(-807.3,-226.9)"
           inkscape:connector-curvature="0"
           style="fill:#263238" />
      </g>
      <g
         id="Group_1383"
         data-name="Group 1383"
         transform="translate(114.899,34.071)">
        <path
           id="Path_29022"
           data-name="Path 29022"
           d="m 741.473,266.414 c 0,0 0,-0.691 0.138,-1.936 0.138,-1.383 0.415,-3.042 0.691,-5.255 0.553,-4.564 1.383,-10.786 2.351,-18.116 l 0.553,0.277 c -2.766,1.936 -5.808,4.01 -8.989,6.223 -3.181,2.213 -6.223,4.425 -9.127,6.361 l -0.691,0.415 0.138,-0.83 c 1.106,-7.191 2.074,-13.414 2.766,-17.839 0.415,-2.074 0.691,-3.872 0.83,-5.117 0.277,-1.245 0.277,-1.8 0.415,-1.8 0,0 0,0.691 -0.138,1.936 -0.138,1.245 -0.415,3.042 -0.691,5.255 -0.691,4.564 -1.521,10.786 -2.489,17.978 l -0.553,-0.277 c 2.766,-1.936 5.946,-4.149 9.127,-6.361 3.181,-2.212 6.223,-4.287 8.989,-6.223 l 0.691,-0.415 -0.138,0.83 c -1.106,7.191 -1.936,13.414 -2.627,17.978 -0.277,2.213 -0.553,3.872 -0.83,5.255 -0.139,0.97 -0.277,1.661 -0.416,1.661 z"
           transform="translate(-726.4,-228.8)"
           inkscape:connector-curvature="0"
           style="fill:#e0e0e0" />
      </g>
      <g
         id="Group_1384"
         data-name="Group 1384"
         transform="translate(146.264,57.58)">
        <path
           id="Path_29023"
           data-name="Path 29023"
           d="m 784.924,265.437 a 9.962,9.962 0 0 1 -1.383,-1.383 c -0.968,-0.968 -2.074,-2.213 -3.6,-3.872 -3.181,-3.319 -7.468,-8.021 -12.308,-13.414 l 0.553,-0.138 c -0.277,3.457 -0.553,7.053 -0.968,10.925 -0.277,3.872 -0.691,7.606 -0.968,11.063 v 0.83 l -0.553,-0.553 c -4.84,-5.393 -8.989,-10.1 -12.031,-13.552 -1.383,-1.659 -2.628,-2.9 -3.457,-4.01 -0.83,-0.968 -1.245,-1.383 -1.106,-1.521 a 9.975,9.975 0 0 1 1.383,1.383 c 0.968,0.968 2.074,2.213 3.6,3.872 3.042,3.319 7.329,8.021 12.169,13.414 l -0.553,0.138 c 0.276,-3.457 0.553,-7.191 0.968,-11.063 0.276,-3.872 0.691,-7.468 0.968,-10.925 v -0.83 l 0.553,0.553 c 4.84,5.393 9.127,10.1 12.169,13.552 1.383,1.66 2.628,2.9 3.457,4.01 0.692,0.968 1.107,1.521 1.107,1.521 z"
           transform="translate(-749.081,-245.8)"
           inkscape:connector-curvature="0"
           style="fill:#e0e0e0" />
      </g>
      <g
         id="Group_1385"
         data-name="Group 1385"
         transform="translate(193.723,75.419)">
        <path
           id="Path_29024"
           data-name="Path 29024"
           d="m 797.92,258.7 c 0,0 -0.276,0.553 -0.968,1.66 -0.692,1.107 -1.659,2.627 -2.766,4.425 -2.489,3.872 -5.946,9.127 -9.818,15.35 l -0.277,-0.553 c 3.319,-0.553 7.053,-1.245 10.786,-1.8 3.872,-0.691 7.468,-1.245 10.925,-1.8 l 0.83,-0.138 -0.415,0.691 c -4.01,6.085 -7.606,11.2 -10.1,15.073 -1.245,1.8 -2.213,3.181 -2.9,4.287 -0.692,0.968 -1.106,1.521 -1.106,1.521 0,0 0.276,-0.553 0.968,-1.659 0.692,-1.106 1.66,-2.628 2.766,-4.425 2.489,-3.872 5.946,-9.127 9.818,-15.212 l 0.276,0.553 c -3.457,0.553 -7.052,1.245 -10.925,1.936 -3.734,0.691 -7.468,1.245 -10.786,1.8 l -0.83,0.138 0.415,-0.691 c 4.01,-6.085 7.468,-11.34 10.1,-15.212 1.245,-1.8 2.213,-3.319 2.9,-4.287 0.692,-1.104 1.107,-1.657 1.107,-1.657 z"
           transform="translate(-783.4,-258.7)"
           inkscape:connector-curvature="0"
           style="fill:#e0e0e0" />
      </g>
      <g
         id="Group_1386"
         data-name="Group 1386"
         transform="translate(158.875,102.247)">
        <path
           id="Path_29025"
           data-name="Path 29025"
           d="m 772.72,278.1 c 0,0 -0.276,0.553 -0.968,1.659 -0.692,1.106 -1.66,2.628 -2.766,4.425 -2.489,3.872 -5.946,9.127 -9.818,15.35 l -0.277,-0.553 c 3.319,-0.553 7.053,-1.245 10.786,-1.8 3.872,-0.691 7.468,-1.245 10.925,-1.8 l 0.83,-0.138 -0.415,0.691 c -4.01,6.085 -7.606,11.2 -10.1,15.073 -1.245,1.8 -2.213,3.181 -2.9,4.287 -0.691,0.968 -1.106,1.521 -1.106,1.521 0,0 0.277,-0.553 0.968,-1.659 0.691,-1.106 1.659,-2.628 2.766,-4.425 2.489,-3.872 5.946,-9.127 9.818,-15.212 l 0.277,0.553 c -3.457,0.553 -7.053,1.245 -10.925,1.936 -3.734,0.691 -7.468,1.245 -10.786,1.8 l -0.83,0.138 0.415,-0.691 c 4.01,-6.085 7.468,-11.34 10.095,-15.212 1.245,-1.8 2.213,-3.319 2.9,-4.287 a 8.292,8.292 0 0 1 1.111,-1.656 z"
           transform="translate(-758.2,-278.1)"
           inkscape:connector-curvature="0"
           style="fill:#e0e0e0" />
      </g>
      <g
         id="Group_1387"
         data-name="Group 1387"
         transform="translate(234.242,75.004)">
        <path
           id="Path_29026"
           data-name="Path 29026"
           d="m 827.22,258.4 c 0,0 -0.277,0.553 -0.968,1.659 -0.691,1.106 -1.66,2.628 -2.766,4.425 -2.489,3.872 -5.946,9.127 -9.818,15.35 l -0.276,-0.553 c 3.319,-0.553 7.053,-1.245 10.786,-1.8 3.872,-0.691 7.468,-1.245 10.925,-1.8 l 0.83,-0.138 -0.415,0.691 c -4.01,6.085 -7.606,11.2 -10.1,15.073 -1.245,1.8 -2.213,3.181 -2.9,4.287 -0.691,0.968 -1.106,1.521 -1.106,1.521 0,0 0.277,-0.553 0.968,-1.66 0.691,-1.107 1.659,-2.627 2.766,-4.425 2.489,-3.872 5.946,-9.127 9.818,-15.212 l 0.276,0.553 c -3.457,0.553 -7.053,1.245 -10.925,1.936 -3.734,0.691 -7.468,1.245 -10.786,1.8 l -0.83,0.138 0.415,-0.691 c 4.01,-6.085 7.468,-11.34 10.1,-15.212 1.245,-1.8 2.213,-3.319 2.9,-4.287 0.553,-1.102 0.968,-1.655 1.106,-1.655 z"
           transform="translate(-812.7,-258.4)"
           inkscape:connector-curvature="0"
           style="fill:#e0e0e0" />
      </g>
      <g
         id="Group_1388"
         data-name="Group 1388"
         transform="translate(57.924,52.878)">
        <path
           id="Path_29027"
           data-name="Path 29027"
           d="m 699.72,242.4 c 0,0 -0.277,0.553 -0.968,1.659 -0.691,1.106 -1.659,2.627 -2.766,4.425 -2.489,3.872 -5.946,9.127 -9.818,15.35 l -0.277,-0.553 c 3.319,-0.553 7.053,-1.245 10.786,-1.8 3.872,-0.691 7.468,-1.245 10.925,-1.8 l 0.83,-0.138 -0.415,0.691 c -4.01,6.085 -7.606,11.2 -10.1,15.073 -1.245,1.8 -2.213,3.181 -2.9,4.287 -0.691,0.968 -1.106,1.521 -1.106,1.521 0,0 0.277,-0.553 0.968,-1.659 0.691,-1.106 1.659,-2.627 2.766,-4.425 2.489,-3.872 5.946,-9.127 9.818,-15.212 l 0.277,0.553 c -3.457,0.553 -7.053,1.245 -10.925,1.936 -3.734,0.691 -7.468,1.245 -10.786,1.8 l -0.83,0.138 0.415,-0.691 c 4.01,-6.085 7.468,-11.34 10.095,-15.212 1.245,-1.8 2.213,-3.319 2.9,-4.287 0.696,-1.103 1.111,-1.656 1.111,-1.656 z"
           transform="translate(-685.2,-242.4)"
           inkscape:connector-curvature="0"
           style="fill:#e0e0e0" />
      </g>
      <g
         id="Group_1389"
         data-name="Group 1389"
         transform="translate(17.821,153.414)">
        <path
           id="Path_29028"
           data-name="Path 29028"
           d="m 656.2,318 c 0,0 0.415,0.415 1.245,1.383 0.83,0.968 1.936,2.351 3.319,4.01 2.9,3.6 6.914,8.436 11.478,14.105 l -0.553,0.138 c 0.553,-3.319 0.968,-7.053 1.521,-10.786 0.553,-3.872 1.106,-7.606 1.659,-10.925 l 0.138,-0.83 0.553,0.691 c 4.425,5.67 8.3,10.648 11.2,14.244 1.245,1.66 2.351,3.181 3.181,4.149 0.691,0.968 1.106,1.521 1.106,1.521 0,0 -0.415,-0.415 -1.245,-1.383 -0.83,-0.968 -1.936,-2.351 -3.319,-4.01 -2.9,-3.6 -6.776,-8.436 -11.34,-14.105 l 0.553,-0.138 c -0.553,3.457 -1.106,7.053 -1.659,10.925 -0.553,3.734 -1.106,7.468 -1.66,10.786 l -0.138,0.83 -0.553,-0.553 c -4.564,-5.67 -8.436,-10.648 -11.34,-14.244 -1.383,-1.659 -2.351,-3.181 -3.181,-4.149 C 656.477,318.557 656.2,318 656.2,318 Z"
           transform="translate(-656.2,-315.1)"
           inkscape:connector-curvature="0"
           style="fill:#e0e0e0" />
      </g>
      <g
         id="Group_1390"
         data-name="Group 1390"
         transform="translate(108.123,89.325)">
        <path
           id="Path_29029"
           data-name="Path 29029"
           d="m 756.072,268.817 c 0,0 -0.691,0.138 -1.936,0.277 -1.383,0.138 -3.042,0.277 -5.255,0.415 -4.563,0.277 -10.925,0.83 -18.116,1.383 l 0.277,-0.553 c 2.489,2.351 5.117,4.84 8.021,7.468 2.766,2.627 5.531,5.255 8.021,7.606 l 0.553,0.553 h -0.83 c -7.191,0.415 -13.552,0.691 -18.116,0.968 -2.213,0.138 -3.872,0.138 -5.255,0.277 H 721.5 c 0,0 0.692,-0.138 1.936,-0.277 1.383,-0.138 3.042,-0.277 5.255,-0.415 4.564,-0.277 10.787,-0.691 18.116,-1.245 l -0.277,0.553 c -2.489,-2.351 -5.255,-4.978 -8.021,-7.606 -2.766,-2.628 -5.532,-5.117 -7.883,-7.468 l -0.553,-0.553 h 0.83 c 7.329,-0.415 13.552,-0.83 18.116,-1.106 2.213,-0.138 3.872,-0.138 5.255,-0.277 1.106,0 1.798,-0.138 1.798,0 z"
           transform="translate(-721.5,-268.756)"
           inkscape:connector-curvature="0"
           style="fill:#e0e0e0" />
      </g>
      <g
         id="Group_1391"
         data-name="Group 1391"
         transform="translate(111.995,155.903)">
        <path
           id="Path_29030"
           data-name="Path 29030"
           d="m 724.3,320.081 a 6.715,6.715 0 0 1 1.245,1.383 c 0.83,0.968 2.074,2.351 3.457,4.01 3.042,3.457 7.053,8.3 11.754,13.967 l -0.553,0.138 c 0.415,-3.319 0.83,-7.053 1.383,-10.786 0.553,-3.872 0.968,-7.606 1.383,-11.063 l 0.138,-0.83 0.553,0.553 c 4.564,5.67 8.574,10.51 11.478,14.105 q 2.074,2.489 3.319,4.149 c 0.691,0.968 1.106,1.521 1.106,1.521 0,0 -0.415,-0.415 -1.245,-1.383 -0.83,-0.968 -1.936,-2.351 -3.457,-4.01 -2.9,-3.457 -6.914,-8.3 -11.616,-13.829 l 0.553,-0.138 c -0.415,3.457 -0.968,7.191 -1.383,11.063 -0.553,3.734 -0.968,7.468 -1.383,10.786 l -0.138,0.83 -0.553,-0.553 c -4.7,-5.67 -8.712,-10.51 -11.616,-14.105 q -2.074,-2.489 -3.319,-4.149 c -0.691,-1.106 -1.106,-1.659 -1.106,-1.659 z"
           transform="translate(-724.3,-316.9)"
           inkscape:connector-curvature="0"
           style="fill:#e0e0e0" />
      </g>
      <g
         id="Group_1392"
         data-name="Group 1392"
         transform="translate(22.661,107.917)">
        <path
           id="Path_29031"
           data-name="Path 29031"
           d="m 694.272,282.2 c 0,0 -0.691,0.138 -1.936,0.277 -1.383,0.138 -3.042,0.277 -5.255,0.415 -4.564,0.277 -10.925,0.83 -18.116,1.383 l 0.277,-0.553 c 2.489,2.351 5.117,4.84 8.021,7.468 2.766,2.628 5.532,5.255 8.021,7.606 l 0.553,0.553 h -0.83 c -7.191,0.415 -13.552,0.691 -18.116,0.968 -2.213,0.138 -3.872,0.138 -5.255,0.277 H 659.7 c 0,0 0.691,-0.138 1.936,-0.277 1.383,-0.138 3.042,-0.277 5.255,-0.415 4.563,-0.277 10.786,-0.691 18.116,-1.245 l -0.277,0.553 c -2.489,-2.351 -5.255,-4.978 -8.021,-7.606 -2.766,-2.628 -5.531,-5.117 -7.882,-7.468 l -0.553,-0.553 h 0.83 c 7.329,-0.415 13.552,-0.83 18.116,-1.106 2.213,-0.138 3.872,-0.138 5.255,-0.277 z"
           transform="translate(-659.7,-282.2)"
           inkscape:connector-curvature="0"
           style="fill:#e0e0e0" />
      </g>
      <g
         id="Group_1393"
         data-name="Group 1393"
         transform="translate(69.679,157.424)">
        <path
           id="Path_29032"
           data-name="Path 29032"
           d="m 728.272,318 c 0,0 -0.691,0.138 -1.936,0.277 -1.383,0.138 -3.042,0.277 -5.255,0.415 -4.563,0.277 -10.925,0.83 -18.116,1.383 l 0.276,-0.553 c 2.489,2.351 5.117,4.84 8.021,7.468 2.766,2.628 5.532,5.255 8.021,7.606 l 0.553,0.553 h -0.83 c -7.191,0.415 -13.552,0.691 -18.116,0.968 -2.212,0.138 -3.872,0.138 -5.255,0.277 H 693.7 c 0,0 0.691,-0.138 1.936,-0.277 1.383,-0.138 3.042,-0.277 5.255,-0.415 4.564,-0.277 10.787,-0.691 18.116,-1.245 l -0.277,0.553 c -2.489,-2.351 -5.255,-4.978 -8.021,-7.606 -2.766,-2.628 -5.531,-5.117 -7.883,-7.468 l -0.553,-0.553 h 0.83 c 7.329,-0.415 13.552,-0.83 18.116,-1.106 2.213,-0.138 3.872,-0.138 5.255,-0.277 z"
           transform="translate(-693.7,-318)"
           inkscape:connector-curvature="0"
           style="fill:#e0e0e0" />
      </g>
      <g
         id="Group_1394"
         data-name="Group 1394"
         transform="translate(175.884,31.444)">
        <path
           id="Path_29033"
           data-name="Path 29033"
           d="m 805.072,226.9 c 0,0 -0.691,0.138 -1.936,0.277 -1.383,0.138 -3.042,0.277 -5.255,0.415 -4.563,0.277 -10.925,0.83 -18.116,1.383 l 0.277,-0.553 c 2.489,2.351 5.117,4.84 8.021,7.468 2.766,2.627 5.532,5.255 8.021,7.606 l 0.553,0.553 h -0.83 c -7.191,0.415 -13.552,0.691 -18.116,0.968 -2.213,0.138 -3.872,0.138 -5.255,0.277 H 770.5 c 0,0 0.691,-0.138 1.936,-0.277 1.383,-0.138 3.042,-0.277 5.255,-0.415 4.563,-0.277 10.786,-0.691 18.116,-1.245 l -0.277,0.553 c -2.489,-2.351 -5.255,-4.978 -8.021,-7.606 -2.766,-2.628 -5.532,-5.117 -7.883,-7.468 l -0.553,-0.553 h 0.83 c 7.329,-0.415 13.552,-0.83 18.116,-1.106 2.213,-0.138 3.872,-0.138 5.255,-0.277 z"
           transform="translate(-770.5,-226.9)"
           inkscape:connector-curvature="0"
           style="fill:#e0e0e0" />
      </g>
    </g>
    <g
       id="Group_1399"
       data-name="Group 1399"
       transform="translate(1429.667 -2189.978)">
      <path
         id="Path_29034"
         data-name="Path 29034"
         d="M759.042,320.431s23.232-6.638,30.977-8.712c3.042-.83,15.9,5.946,24.754,11.616,0,0,12.169,7.191,11.2,9.542-1.106,2.489-5.532,1.936-12.723-1.383,0,0,2.489,7.329-2.351,7.191,0,0,2.489,7.882-2.213,8.712-4.563.83-5.67-9.265-9.818-9.819-4.01-.553-12.446-1.106-12.446-1.106s-7.053,11.616-12.446,12.446S756,348.227,756,348.227Z"
         transform="translate(-756 -311.65)"
         fill="#ffbe9d" />
      <g
         id="Group_1396"
         data-name="Group 1396"
         transform="translate(42.488 10.078)">
        <ellipse
           id="Ellipse_370"
           data-name="Ellipse 370"
           cx="0.415"
           cy="7.468"
           rx="0.415"
           ry="7.468"
           transform="matrix(0.533, -0.846, 0.846, 0.533, 0, 0.702)"
           fill="#eb996e" />
      </g>
      <g
         id="Group_1397"
         data-name="Group 1397"
         transform="translate(41.317 14.504)">
        <ellipse
           id="Ellipse_371"
           data-name="Ellipse 371"
           cx="0.415"
           cy="8.297"
           rx="0.415"
           ry="8.297"
           transform="matrix(0.419, -0.908, 0.908, 0.419, 0, 0.753)"
           fill="#eb996e" />
      </g>
      <g
         id="Group_1398"
         data-name="Group 1398"
         transform="translate(43.806 25.373)">
        <ellipse
           id="Ellipse_372"
           data-name="Ellipse 372"
           cx="0.415"
           cy="5.255"
           rx="0.415"
           ry="5.255"
           transform="translate(0 0.822) rotate(-82.195)"
           fill="#eb996e" />
      </g>
    </g>
    <g
       id="Group_1430"
       data-name="Group 1430"
       transform="matrix(1.2690853,0,0,1.1730487,1360.5324,-2524.7313)">
      <g
         id="Group_1424"
         data-name="Group 1424">
        <path
           id="Path_29035"
           data-name="Path 29035"
           d="m 741.627,163.054 a 5.1,5.1 0 0 1 -1.521,5.117 4.841,4.841 0 0 1 -5.255,0.553 c -3.181,-1.659 -3.6,-5.946 -2.9,-9.4 0.553,-3.457 1.8,-7.191 0.276,-10.372 -1.106,-2.489 -3.6,-4.01 -5.393,-5.946 a 15.518,15.518 0 0 1 -4.287,-13 12.764,12.764 0 0 1 8.85,-10.1 c 4.564,-1.245 10.372,0.138 13.829,-3.181 2.489,-2.489 2.628,-6.361 4.564,-9.265 3.042,-4.564 9.4,-5.255 14.659,-4.425 5.393,0.691 10.786,2.489 16.041,1.106 4.425,-1.106 8.021,-4.149 12.031,-6.085 a 24.441,24.441 0 0 1 27.1,5.255 c 6.776,7.053 8.3,18.531 3.872,27.243 a 15.7,15.7 0 0 1 -7.329,7.329"
           transform="translate(-722.388,-96.04)"
           inkscape:connector-curvature="0"
           style="fill:#554400" />
        <g
           id="Group_1415"
           data-name="Group 1415"
           transform="translate(17.717,27.951)">
          <g
             id="Group_1414"
             data-name="Group 1414">
            <g
               id="Group_1413"
               data-name="Group 1413">
              <g
                 id="Group_1400"
                 data-name="Group 1400">
                <path
                   id="Path_29036"
                   data-name="Path 29036"
                   d="m 763.411,269.541 v 0 a 26.765,26.765 0 0 0 26.69,-26.966 l -0.415,-25.445 c 0,0 21.3,-2.074 22.818,-23.232 1.383,-21.158 0.415,-69.974 0.415,-69.974 v 0 a 73.656,73.656 0 0 0 -74.4,5.255 l -3.319,2.213 1.659,111.875 a 26.412,26.412 0 0 0 26.552,26.274 z"
                   transform="translate(-735.2,-116.253)"
                   inkscape:connector-curvature="0"
                   style="fill:#ffbe9d" />
              </g>
              <g
                 id="Group_1404"
                 data-name="Group 1404"
                 transform="translate(65.523,35.722)">
                <g
                   id="Group_1401"
                   data-name="Group 1401"
                   transform="translate(3.725,3.755)">
                  <path
                     id="Path_29037"
                     data-name="Path 29037"
                     d="m 788.075,151.161 c -3.734,-0.691 -3.734,-5.532 0,-6.361 h 0.553 c 3.734,0.691 3.734,5.532 0,6.361 z"
                     transform="translate(-785.275,-144.8)"
                     inkscape:connector-curvature="0"
                     style="fill:#263238" />
                </g>
                <g
                   id="Group_1403"
                   data-name="Group 1403">
                  <g
                     id="Group_1402"
                     data-name="Group 1402">
                    <path
                       id="Path_29038"
                       data-name="Path 29038"
                       d="m 793.255,145.425 c -0.415,0.415 -2.351,-1.383 -5.255,-1.521 -2.9,-0.277 -5.117,1.245 -5.393,0.83 -0.138,-0.138 0.277,-0.83 1.245,-1.521 a 6.592,6.592 0 0 1 4.287,-1.106 7.687,7.687 0 0 1 4.149,1.659 c 0.829,0.834 1.106,1.521 0.967,1.659 z"
                       transform="translate(-782.581,-142.085)"
                       inkscape:connector-curvature="0"
                       style="fill:#263238" />
                  </g>
                </g>
              </g>
              <g
                 id="Group_1408"
                 data-name="Group 1408"
                 transform="translate(33.716,36.552)">
                <g
                   id="Group_1405"
                   data-name="Group 1405"
                   transform="translate(2.706,1.659)">
                  <circle
                     id="Ellipse_373"
                     data-name="Ellipse 373"
                     cx="3.0420001"
                     cy="3.0420001"
                     r="3.0420001"
                     transform="rotate(-55.29,4.7748341,2.501)"
                     style="fill:#263238" />
                </g>
                <g
                   id="Group_1407"
                   data-name="Group 1407">
                  <g
                     id="Group_1406"
                     data-name="Group 1406">
                    <path
                       id="Path_29039"
                       data-name="Path 29039"
                       d="m 770.255,146.025 c -0.415,0.415 -2.351,-1.383 -5.255,-1.521 -2.9,-0.277 -5.117,1.245 -5.393,0.83 -0.138,-0.138 0.277,-0.83 1.245,-1.521 a 6.592,6.592 0 0 1 4.287,-1.106 7.687,7.687 0 0 1 4.149,1.659 c 0.829,0.834 1.106,1.521 0.967,1.659 z"
                       transform="translate(-759.581,-142.685)"
                       inkscape:connector-curvature="0"
                       style="fill:#263238" />
                  </g>
                </g>
              </g>
              <g
                 id="Group_1410"
                 data-name="Group 1410"
                 transform="translate(54.426,39.199)">
                <g
                   id="Group_1409"
                   data-name="Group 1409">
                  <path
                     id="Path_29040"
                     data-name="Path 29040"
                     d="m 774.893,170.046 c 0,-0.277 1.8,-0.553 4.7,-0.691 0.83,0 1.383,-0.138 1.521,-0.553 a 5.352,5.352 0 0 0 -0.415,-2.213 c -0.691,-1.936 -1.245,-4.01 -1.936,-6.085 -2.766,-8.574 -4.563,-15.765 -4.149,-15.9 0.414,-0.135 3.042,6.776 5.67,15.35 0.691,2.074 1.245,4.149 1.8,6.085 a 4.793,4.793 0 0 1 0.276,3.181 1.837,1.837 0 0 1 -1.383,1.106 4.764,4.764 0 0 1 -1.245,0.138 c -3.041,-0.004 -4.839,-0.142 -4.839,-0.418 z"
                     transform="translate(-774.557,-144.599)"
                     inkscape:connector-curvature="0"
                     style="fill:#263238" />
                </g>
              </g>
              <g
                 id="Group_1411"
                 data-name="Group 1411"
                 transform="translate(44.841,67.412)">
                <path
                   id="Path_29041"
                   data-name="Path 29041"
                   d="m 767.867,165 a 53.516,53.516 0 0 0 14.105,4.978 c 0,0 -3.734,5.255 -9.68,2.627 C 766.069,169.84 767.867,165 767.867,165 Z"
                   transform="translate(-767.626,-165)"
                   inkscape:connector-curvature="0"
                   style="fill:#ffffff" />
              </g>
              <g
                 id="Group_1412"
                 data-name="Group 1412"
                 transform="translate(27.243,91.059)">
                <path
                   id="Path_29042"
                   data-name="Path 29042"
                   d="m 782.143,191.5 c 0,0 -13.414,0.415 -27.243,-9.4 0,0 5.67,15.627 26.966,14.8 z"
                   transform="translate(-754.9,-182.1)"
                   inkscape:connector-curvature="0"
                   style="fill:#eb996e" />
              </g>
            </g>
          </g>
        </g>
        <path
           id="Path_29043"
           data-name="Path 29043"
           d="m 814.438,130.769 c 0,0 -12.722,6.5 -29.732,-1.521 -11.063,-5.255 -24.062,-7.744 -26.828,-5.393 -2.766,2.213 -3.181,13.691 -13.967,17.148 0,0 1.106,21.711 -7.468,21.02 -8.712,-0.553 -3.872,-34.3 -3.872,-34.3 l 20.882,-10.786 22.956,-4.84 21.85,2.627 16.871,4.287 z"
           transform="translate(-719.002,-89.891)"
           inkscape:connector-curvature="0"
           style="fill:#554400" />
        <g
           id="Group_1419"
           data-name="Group 1419"
           transform="translate(4.438,64.144)">
          <g
             id="Group_1416"
             data-name="Group 1416">
            <path
               id="Path_29044"
               data-name="Path 29044"
               d="m 740.259,143.358 c -0.415,-0.138 -14.382,-5.117 -14.658,9.4 -0.276,14.517 14.244,11.893 14.382,11.478 0,-0.411 0.276,-20.878 0.276,-20.878 z"
               transform="translate(-725.597,-142.425)"
               inkscape:connector-curvature="0"
               style="fill:#ffbe9d" />
          </g>
          <g
             id="Group_1418"
             data-name="Group 1418"
             transform="translate(3.737,4.529)">
            <g
               id="Group_1417"
               data-name="Group 1417">
              <path
                 id="Path_29045"
                 data-name="Path 29045"
                 d="m 734.523,157.316 a 7.177,7.177 0 0 0 -0.691,0.415 3.015,3.015 0 0 1 -1.936,0 c -1.521,-0.553 -2.766,-3.042 -2.766,-5.67 a 7.276,7.276 0 0 1 0.83,-3.6 2.713,2.713 0 0 1 1.936,-1.936 1.392,1.392 0 0 1 1.521,0.691 2.423,2.423 0 0 1 0.138,0.691 1.211,1.211 0 0 0 0.277,-0.83 1.757,1.757 0 0 0 -0.553,-0.968 2.065,2.065 0 0 0 -1.383,-0.415 3.283,3.283 0 0 0 -2.627,2.213 9.03,9.03 0 0 0 -0.968,4.01 c 0,2.9 1.521,5.67 3.6,6.361 a 3.091,3.091 0 0 0 2.351,-0.277 c 0.271,-0.27 0.409,-0.685 0.271,-0.685 z"
                 transform="translate(-728.3,-145.7)"
                 inkscape:connector-curvature="0"
                 style="fill:#eb996e" />
            </g>
          </g>
        </g>
        <g
           id="Group_1420"
           data-name="Group 1420"
           transform="translate(11.627,19.351)">
          <path
             id="Path_29046"
             data-name="Path 29046"
             d="m 730.8,110.4 c -0.138,-0.138 2.351,-0.83 4.978,0.138 2.766,0.968 4.149,3.042 3.872,3.181 -0.138,0.138 -1.659,-1.521 -4.149,-2.489 A 15.925,15.925 0 0 0 730.8,110.4 Z"
             transform="translate(-730.796,-110.034)"
             inkscape:connector-curvature="0"
             style="fill:#263238" />
        </g>
        <g
           id="Group_1421"
           data-name="Group 1421"
           transform="translate(19.857,11.007)">
          <path
             id="Path_29047"
             data-name="Path 29047"
             d="m 737.235,104 c 0.276,0 -0.138,3.042 0.415,6.638 0.553,3.596 2.213,6.223 2.074,6.361 a 10.13,10.13 0 0 1 -1.245,-1.659 15.992,15.992 0 0 1 -1.521,-4.564 15.356,15.356 0 0 1 0.277,-6.776 z"
             transform="translate(-736.747,-104)"
             inkscape:connector-curvature="0"
             style="fill:#263238" />
        </g>
        <g
           id="Group_1422"
           data-name="Group 1422"
           transform="translate(79.93,58.164)">
          <path
             id="Path_29048"
             data-name="Path 29048"
             d="m 780.2,140.036 c -0.138,-0.138 0.553,-0.691 1.659,-1.106 a 14.554,14.554 0 0 1 4.84,-0.83 11.52,11.52 0 0 1 4.84,0.968 c 1.106,0.553 1.8,0.968 1.659,1.245 -0.138,0.415 -2.9,-0.691 -6.5,-0.691 -3.451,-0.277 -6.355,0.829 -6.498,0.414 z"
             transform="translate(-780.187,-138.1)"
             inkscape:connector-curvature="0"
             style="fill:#263238" />
        </g>
        <g
           id="Group_1423"
           data-name="Group 1423"
           transform="translate(47.57,55.121)">
          <path
             id="Path_29049"
             data-name="Path 29049"
             d="m 756.8,137.836 c -0.138,-0.138 0.553,-0.691 1.66,-1.106 a 14.553,14.553 0 0 1 4.84,-0.83 11.521,11.521 0 0 1 4.84,0.968 c 1.106,0.553 1.8,0.968 1.659,1.245 -0.138,0.415 -2.9,-0.691 -6.5,-0.691 -3.452,-0.277 -6.218,0.829 -6.499,0.414 z"
             transform="translate(-756.787,-135.9)"
             inkscape:connector-curvature="0"
             style="fill:#263238" />
        </g>
      </g>
      <g
         id="Group_1429"
         data-name="Group 1429"
         transform="translate(17.03,61.206)">
        <g
           id="Group_1425"
           data-name="Group 1425"
           transform="translate(59.963,0.83)">
          <path
             id="Path_29050"
             data-name="Path 29050"
             d="m 778.529,141.315 v 0.83 a 15.986,15.986 0 0 0 0.138,2.351 35.068,35.068 0 0 0 0.138,3.6 14.9,14.9 0 0 0 0.691,4.7 12.333,12.333 0 0 0 3.042,4.84 13.459,13.459 0 0 0 5.67,3.181 10.293,10.293 0 0 0 3.6,0.277 8.068,8.068 0 0 0 3.6,-0.83 11.953,11.953 0 0 0 5.946,-4.84 12.133,12.133 0 0 0 1.936,-7.053 v -7.191 l 0.277,0.277 c -7.191,0 -13.414,-0.138 -17.977,-0.138 -2.213,0 -3.872,0 -5.255,-0.138 h -1.383 a 0.683,0.683 0 0 1 -0.415,0.138 c 0,0 0.553,0 1.8,-0.138 1.245,0 3.042,0 5.117,-0.138 4.563,0 10.786,-0.138 18.116,-0.138 h 0.277 v 7.468 a 12.278,12.278 0 0 1 -2.074,7.468 13.5,13.5 0 0 1 -6.361,5.117 17.509,17.509 0 0 1 -3.872,0.83 8.659,8.659 0 0 1 -3.734,-0.415 12.6,12.6 0 0 1 -5.946,-3.319 14.372,14.372 0 0 1 -3.181,-5.117 12.414,12.414 0 0 1 -0.553,-4.84 31.282,31.282 0 0 1 0.138,-3.734 11.932,11.932 0 0 1 0.138,-2.351 c 0.127,-0.559 0.127,-0.835 0.127,-0.697 z"
             transform="translate(-778.064,-140.9)"
             inkscape:connector-curvature="0"
             style="fill:#263238" />
        </g>
        <g
           id="Group_1426"
           data-name="Group 1426"
           transform="translate(26.083)">
          <path
             id="Path_29051"
             data-name="Path 29051"
             d="m 754.029,140.715 v 0.83 a 16,16 0 0 0 0.138,2.351 35.052,35.052 0 0 0 0.138,3.6 14.9,14.9 0 0 0 0.691,4.7 12.332,12.332 0 0 0 3.042,4.84 13.46,13.46 0 0 0 5.67,3.181 10.292,10.292 0 0 0 3.6,0.277 8.067,8.067 0 0 0 3.6,-0.83 11.953,11.953 0 0 0 5.946,-4.84 12.131,12.131 0 0 0 1.936,-7.053 v -7.191 l 0.277,0.277 c -7.191,0 -13.414,-0.138 -17.977,-0.138 -2.213,0 -3.872,0 -5.255,-0.138 h -1.383 c -0.277,0.277 -0.415,0.138 -0.415,0.138 0,0 0.553,0 1.8,-0.138 1.245,0 3.042,0 5.117,-0.138 4.564,0 10.786,-0.138 18.116,-0.138 h 0.277 v 7.468 a 12.28,12.28 0 0 1 -2.074,7.468 13.5,13.5 0 0 1 -6.361,5.117 17.509,17.509 0 0 1 -3.872,0.83 8.659,8.659 0 0 1 -3.734,-0.415 12.6,12.6 0 0 1 -5.947,-3.319 14.373,14.373 0 0 1 -3.181,-5.117 12.415,12.415 0 0 1 -0.553,-4.84 31.31,31.31 0 0 1 0.138,-3.734 11.932,11.932 0 0 1 0.138,-2.351 2.418,2.418 0 0 0 0.128,-0.697 z"
             transform="translate(-753.564,-140.3)"
             inkscape:connector-curvature="0"
             style="fill:#263238" />
        </g>
        <g
           id="Group_1427"
           data-name="Group 1427"
           transform="translate(51.163,1.798)">
          <ellipse
             id="Ellipse_374"
             data-name="Ellipse 374"
             cx="4.8400002"
             cy="0.41499999"
             rx="4.8400002"
             ry="0.41499999"
             style="fill:#263238" />
        </g>
        <g
           id="Group_1428"
           data-name="Group 1428"
           transform="translate(0,1.895)">
          <ellipse
             id="Ellipse_375"
             data-name="Ellipse 375"
             cx="13.276"
             cy="0.41499999"
             rx="13.276"
             ry="0.41499999"
             transform="rotate(-0.174,26.342867,0.0399996)"
             style="fill:#263238" />
        </g>
      </g>
    </g>
    <path
       id="Path_29057"
       data-name="Path 29057"
       d="m 1593.2625,-2356.7995 -61.6215,203.5649 h -111.516 v 9.1746 h 331.9402 l 67.7591,-212.7395 z"
       inkscape:connector-curvature="0"
       style="fill:#263238;stroke-width:1.55363178" />
    <ellipse
       id="Ellipse_377"
       data-name="Ellipse 377"
       cx="2582.0576"
       cy="862.586"
       rx="12.595521"
       ry="9.8252392"
       transform="matrix(0.28954036,-0.95716581,0.96265758,0.27072198,0,0)"
       style="fill:#666666;stroke-width:1.18585324" />
    <rect
       style="opacity:1;fill:#666666;fill-opacity:1;stroke:#ffffff;stroke-width:4.02519703;stroke-linecap:round;stroke-miterlimit:4;stroke-dasharray:none;stroke-dashoffset:0;stroke-opacity:1"
       id="rect988"
       width="145.90221"
       height="193.81895"
       x="1171.3848"
       y="-2495.6448" />
    <text
       xml:space="preserve"
       style="font-style:normal;font-variant:normal;font-weight:bold;font-stretch:normal;font-size:43.47687531px;line-height:1.25;font-family:sans-serif;-inkscape-font-specification:'sans-serif Bold';text-align:end;letter-spacing:0px;word-spacing:0px;text-anchor:end;fill:#000000;fill-opacity:1;stroke:none;stroke-width:1.35865235"
       x="1319.746"
       y="-2266.8467"
       id="text992"
       transform="scale(0.94289844,1.0605596)"><tspan
         sodipodi:role="line"
         id="tspan990"
         x="1325.1382"
         y="-2266.8467"
         style="font-style:normal;font-variant:normal;font-weight:bold;font-stretch:normal;font-family:'SquareFont Outline';-inkscape-font-specification:'SquareFont Outline Bold';text-align:center;text-anchor:middle;fill:#000000;stroke-width:1.35865235">Learn </tspan><tspan
         sodipodi:role="line"
         x="1319.746"
         y="-2211.7227"
         id="tspan994"
         style="font-style:normal;font-variant:normal;font-weight:bold;font-stretch:normal;font-family:'SquareFont Outline';-inkscape-font-specification:'SquareFont Outline Bold';text-align:center;text-anchor:middle;fill:#000000;stroke-width:1.35865235">Online</tspan></text>
    <text
       xml:space="preserve"
       style="font-style:normal;font-variant:normal;font-weight:bold;font-stretch:normal;font-size:30.91715813px;line-height:1.25;font-family:sans-serif;-inkscape-font-specification:'sans-serif Bold';text-align:end;letter-spacing:0px;word-spacing:0px;text-anchor:end;fill:#808080;fill-opacity:1;stroke:none;stroke-width:2.89848399"
       x="1780.5555"
       y="-2169.7234"
       id="text998"
       transform="matrix(0.97937604,-0.00705657,-0.01281947,1.0211506,0,0)"><tspan
         sodipodi:role="line"
         id="tspan996"
         x="1780.5555"
         y="-2169.7234"
         style="font-style:normal;font-variant:normal;font-weight:bold;font-stretch:normal;font-family:'SquareFont Outline';-inkscape-font-specification:'SquareFont Outline Bold';fill:#808080;stroke-width:2.89848399">We Are Peta</tspan></text>
  </g>
</svg>
